<svg width="20" height="20" viewBox="0 0 20 20" fill="currentColor" xmlns="http://www.w3.org/2000/svg">
            <path fill-rule="evenodd" clip-rule="evenodd" d="M15.75 10C15.75 13.1756 13.1756 15.75 10 15.75C6.82436 15.75 4.25 13.1756 4.25 10C4.25 6.82436 6.82436 4.25 10 4.25C13.1756 4.25 15.75 6.82436 15.75 10ZM14 10C14 12.2091 12.2091 14 10 14C7.79086 14 6 12.2091 6 10C6 7.79086 7.79086 6 10 6C12.2091 6 14 7.79086 14 10Z"></path>
            <path d="M10.8337 0.416656H9.16699V2.91666H10.8337V0.416656Z"></path>
            <path d="M10.8337 17.0833H9.16699V19.5833H10.8337V17.0833Z"></path>
            <path d="M19.583 9.16666H17.083V10.8333H19.583V9.16666Z"></path>
            <path d="M2.91699 9.16666H0.416992V10.8333H2.91699V9.16666Z"></path>
            <path d="M15.4201 14.5177L14.5166 15.4212L16.3236 17.2282L17.2272 16.3247L15.4201 14.5177Z"></path>
            <path d="M3.67598 2.77181L2.77246 3.67532L4.57949 5.48236L5.48301 4.57884L3.67598 2.77181Z"></path>
            <path d="M4.57852 14.5172L2.77148 16.3242L3.675 17.2278L5.48203 15.4207L4.57852 14.5172Z"></path>
            <path d="M16.3236 2.77198L14.5166 4.57901L15.4201 5.48253L17.2272 3.67549L16.3236 2.77198Z"></path>
</svg>